<?xml version="1.0" encoding="UTF-8"?>
<svg id="Layer_2" data-name="Layer 2" xmlns="http://www.w3.org/2000/svg" viewBox="0 0 113.39 113.39">
  <defs>
    <style>
      .cls-1 {
        fill: #77cdd7;
      }

      .cls-2 {
        fill: #d4d0c1;
      }

      .cls-3 {
        fill: #bdb8a2;
      }

      .cls-4 {
        fill: #8bced6;
      }

      .cls-5 {
        fill: #aedfe5;
      }

      .cls-6 {
        fill: #14b6c1;
      }
    </style>
  </defs>
  <g id="Artwork">
    <g>
      <g>
        <path class="cls-2" d="M46.65,3.96c-.31-2.37.78-3.69,2.59-3.92s3.2.75,3.52,3.12c.37,2.77-.61,7.43-2.1,7.62s-3.64-4.04-4-6.82"/>
        <path class="cls-2" d="M21.62,16.05c-1.45-1.89-1.16-3.58.28-4.69s3.15-.95,4.6.94c1.7,2.22,3.18,6.74,1.99,7.65s-5.17-1.68-6.88-3.9"/>
        <path class="cls-2" d="M12.3,26.51c-1.89-1.45-2.05-3.16-.94-4.6s2.8-1.73,4.69-.28c2.22,1.7,4.82,5.68,3.9,6.87s-5.43-.29-7.65-1.99"/>
        <path class="cls-2" d="M6,39.03c-2.21-.91-2.8-2.52-2.1-4.2s2.25-2.4,4.46-1.48c2.58,1.07,6.12,4.24,5.55,5.63s-5.32,1.13-7.91.06"/>
        <path class="cls-2" d="M3.15,52.75c-2.37-.31-3.36-1.71-3.12-3.52s1.56-2.9,3.92-2.59c2.77.37,7.01,2.52,6.82,4s-4.85,2.47-7.62,2.1"/>
        <path class="cls-2" d="M3.96,66.74c-2.37.31-3.69-.78-3.92-2.59s.75-3.2,3.12-3.52c2.77-.37,7.43.61,7.62,2.1s-4.04,3.64-6.82,4"/>
        <path class="cls-2" d="M8.36,80.05c-2.21.91-3.76.2-4.46-1.49s-.1-3.29,2.1-4.2c2.58-1.07,7.33-1.33,7.91.06s-2.96,4.56-5.55,5.63"/>
        <path class="cls-2" d="M26.51,101.09c-1.45,1.89-3.16,2.05-4.6.94s-1.73-2.8-.28-4.69c1.7-2.22,5.68-4.82,6.87-3.9s-.29,5.43-1.99,7.65"/>
      </g>
      <g>
        <path class="cls-5" d="M16.05,91.76c-1.89,1.45-3.58,1.16-4.69-.28s-.95-3.15.94-4.6c2.22-1.7,6.74-3.18,7.65-1.99s-1.68,5.17-3.9,6.88"/>
        <path class="cls-5" d="M39.03,107.39c-.91,2.21-2.52,2.8-4.2,2.1s-2.4-2.25-1.48-4.46c1.07-2.58,4.24-6.12,5.63-5.55s1.13,5.32.06,7.91"/>
        <path class="cls-5" d="M52.75,110.23c-.31,2.37-1.71,3.36-3.52,3.12s-2.9-1.56-2.59-3.92c.37-2.77,2.52-7.01,4-6.82s2.47,4.85,2.1,7.62"/>
        <path class="cls-5" d="M66.74,109.43c.31,2.37-.78,3.69-2.59,3.92s-3.2-.75-3.52-3.12c-.37-2.77.61-7.43,2.1-7.62s3.64,4.04,4,6.82"/>
        <path class="cls-5" d="M80.05,105.03c.91,2.21.2,3.76-1.49,4.46s-3.29.1-4.2-2.1c-1.07-2.58-1.33-7.33.06-7.91s4.56,2.96,5.63,5.55"/>
        <path class="cls-5" d="M91.76,97.34c1.45,1.89,1.16,3.58-.28,4.69s-3.15.95-4.6-.94c-1.7-2.22-3.18-6.74-1.99-7.65s5.17,1.68,6.88,3.9"/>
        <path class="cls-5" d="M101.09,86.88c1.89,1.45,2.05,3.16.94,4.6s-2.8,1.73-4.69.28c-2.22-1.7-4.82-5.68-3.9-6.87s5.43.29,7.65,1.99"/>
        <path class="cls-5" d="M110.23,60.64c2.37.31,3.36,1.71,3.12,3.52s-1.56,2.9-3.92,2.59c-2.77-.37-7.01-2.52-6.82-4s4.85-2.47,7.62-2.1"/>
      </g>
      <g>
        <path class="cls-4" d="M33.34,8.36c-.91-2.21-.2-3.76,1.49-4.46s3.29-.1,4.2,2.1c1.07,2.58,1.33,7.33-.06,7.91s-4.56-2.96-5.63-5.55"/>
        <path class="cls-4" d="M107.39,74.36c2.21.91,2.8,2.52,2.1,4.2s-2.25,2.4-4.46,1.48c-2.58-1.07-6.12-4.24-5.55-5.63s5.32-1.13,7.91-.06"/>
        <path class="cls-4" d="M109.43,46.65c2.37-.31,3.69.78,3.92,2.59s-.75,3.2-3.12,3.52c-2.77.37-7.43-.61-7.62-2.1s4.04-3.64,6.82-4"/>
        <path class="cls-4" d="M105.03,33.34c2.21-.91,3.76-.2,4.46,1.49s.1,3.29-2.1,4.2c-2.58,1.07-7.33,1.33-7.91-.06s2.96-4.56,5.55-5.63"/>
        <path class="cls-4" d="M97.34,21.62c1.89-1.45,3.58-1.16,4.69.28s.95,3.15-.94,4.6c-2.22,1.7-6.74,3.18-7.65,1.99s1.68-5.17,3.9-6.88"/>
        <path class="cls-4" d="M86.88,12.3c1.45-1.89,3.16-2.05,4.6-.94s1.73,2.8.28,4.69c-1.7,2.22-5.68,4.82-6.87,3.9s.29-5.43,1.99-7.65"/>
        <path class="cls-4" d="M74.36,6c.91-2.21,2.52-2.8,4.2-2.1s2.4,2.25,1.48,4.46c-1.07,2.58-4.24,6.12-5.63,5.55s-1.13-5.32-.06-7.91"/>
        <path class="cls-4" d="M60.64,3.15c.31-2.37,1.71-3.36,3.52-3.12s2.9,1.56,2.59,3.92c-.37,2.77-2.52,7.01-4,6.82s-2.47-4.85-2.1-7.62"/>
      </g>
      <g>
        <path class="cls-3" d="M33.9,24.05c-1.33-2.3-.76-4.12.99-5.13s3.61-.59,4.93,1.71c1.55,2.69,2.53,7.88,1.08,8.72s-5.45-2.6-7.01-5.3"/>
        <path class="cls-3" d="M20.63,39.82c-2.3-1.33-2.72-3.18-1.71-4.94s2.83-2.32,5.13-.99c2.69,1.55,6.13,5.56,5.3,7.01s-6.03.47-8.72-1.08"/>
        <path class="cls-3" d="M17.5,49.73c-2.56-.69-3.45-2.37-2.93-4.33s2.13-2.97,4.7-2.28c3,.8,7.36,3.79,6.93,5.4s-5.7,2.01-8.7,1.21"/>
        <path class="cls-3" d="M17.03,60.11c-2.65,0-3.95-1.4-3.95-3.42s1.29-3.42,3.95-3.42c3.11,0,8.09,1.75,8.09,3.42s-4.98,3.42-8.09,3.42"/>
        <path class="cls-3" d="M19.27,70.26c-2.56.69-4.17-.33-4.7-2.28s.36-3.64,2.93-4.32c3-.8,8.27-.4,8.7,1.21s-3.93,4.59-6.93,5.4"/>
        <path class="cls-3" d="M24.05,79.49c-2.3,1.33-4.12.76-5.13-.99s-.59-3.61,1.71-4.93c2.69-1.55,7.88-2.53,8.72-1.08s-2.6,5.45-5.3,7.01"/>
        <path class="cls-3" d="M31.07,87.16c-1.88,1.88-3.78,1.8-5.21.37s-1.5-3.33.37-5.21c2.2-2.2,6.96-4.48,8.14-3.3s-1.1,5.94-3.3,8.14"/>
        <path class="cls-3" d="M49.73,95.89c-.69,2.56-2.37,3.45-4.33,2.93s-2.97-2.13-2.28-4.7c.8-3,3.79-7.36,5.4-6.93s2.01,5.7,1.21,8.7"/>
        <path class="cls-3" d="M40.99,36.34c-1.33-2.3-.76-4.12.99-5.13s3.61-.59,4.93,1.71c1.55,2.69,2.53,7.88,1.08,8.72s-5.45-2.6-7.01-5.3"/>
        <path class="cls-3" d="M31.22,60.11c-2.65,0-3.95-1.4-3.95-3.42s1.29-3.42,3.95-3.42c3.11,0,8.09,1.75,8.09,3.42s-4.98,3.42-8.09,3.42"/>
        <path class="cls-3" d="M36.34,72.39c-2.3,1.33-4.12.76-5.13-.99s-.59-3.61,1.71-4.93c2.69-1.55,7.88-2.53,8.72-1.08s-2.6,5.45-5.3,7.01"/>
        <path class="cls-3" d="M60.11,82.17c0,2.65-1.4,3.95-3.42,3.95s-3.42-1.29-3.42-3.95c0-3.11,1.75-8.09,3.42-8.09s3.42,4.98,3.42,8.09"/>
      </g>
      <g>
        <path class="cls-1" d="M39.82,92.75c-1.33,2.3-3.18,2.72-4.94,1.71s-2.32-2.83-.99-5.13c1.55-2.69,5.56-6.13,7.01-5.3s.47,6.03-1.08,8.72"/>
        <path class="cls-1" d="M60.11,96.36c0,2.65-1.4,3.95-3.42,3.95s-3.42-1.29-3.42-3.95c0-3.11,1.75-8.09,3.42-8.09s3.42,4.98,3.42,8.09"/>
        <path class="cls-1" d="M70.26,94.12c.69,2.56-.33,4.17-2.28,4.7s-3.64-.36-4.32-2.93c-.8-3-.4-8.27,1.21-8.7s4.59,3.93,5.4,6.93"/>
        <path class="cls-1" d="M79.49,89.33c1.33,2.3.76,4.12-.99,5.13s-3.61.59-4.93-1.71c-1.55-2.69-2.53-7.88-1.08-8.72s5.45,2.6,7.01,5.3"/>
        <path class="cls-1" d="M87.16,82.32c1.88,1.88,1.8,3.78.37,5.21s-3.33,1.5-5.21-.37c-2.2-2.2-4.48-6.96-3.3-8.14s5.94,1.1,8.14,3.3"/>
        <path class="cls-1" d="M92.75,73.56c2.3,1.33,2.72,3.18,1.71,4.94s-2.83,2.32-5.13.99c-2.69-1.55-6.13-5.56-5.3-7.01s6.03-.47,8.72,1.08"/>
        <path class="cls-1" d="M95.89,63.65c2.56.69,3.45,2.37,2.93,4.33s-2.13,2.97-4.7,2.28c-3-.8-7.36-3.79-6.93-5.4s5.7-2.01,8.7-1.21"/>
        <path class="cls-1" d="M94.12,43.12c2.56-.69,4.17.33,4.7,2.28s-.36,3.64-2.93,4.32c-3,.8-8.27.4-8.7-1.21s3.93-4.59,6.93-5.4"/>
        <path class="cls-1" d="M46.92,80.47c-1.33,2.3-3.18,2.72-4.94,1.71s-2.32-2.83-.99-5.13c1.55-2.69,5.56-6.13,7.01-5.3s.47,6.03-1.08,8.72"/>
        <path class="cls-1" d="M72.39,77.05c1.33,2.3.76,4.12-.99,5.13s-3.61.59-4.93-1.71c-1.55-2.69-2.53-7.88-1.08-8.72s5.45,2.6,7.01,5.3"/>
        <path class="cls-1" d="M80.47,66.47c2.3,1.33,2.72,3.18,1.71,4.94s-2.83,2.32-5.13.99c-2.69-1.55-6.13-5.56-5.3-7.01s6.03-.47,8.72,1.08"/>
        <path class="cls-1" d="M77.05,40.99c2.3-1.33,4.12-.76,5.13.99s.59,3.61-1.71,4.93c-2.69,1.55-7.88,2.53-8.72,1.08s2.6-5.45,5.3-7.01"/>
      </g>
      <g>
        <path class="cls-6" d="M53.27,31.22c0-2.65,1.4-3.95,3.42-3.95s3.42,1.29,3.42,3.95c0,3.11-1.75,8.09-3.42,8.09s-3.42-4.98-3.42-8.09"/>
        <path class="cls-6" d="M53.27,17.03c0-2.65,1.4-3.95,3.42-3.95s3.42,1.29,3.42,3.95c0,3.11-1.75,8.09-3.42,8.09s-3.42-4.98-3.42-8.09"/>
        <path class="cls-6" d="M43.12,19.27c-.69-2.56.33-4.17,2.28-4.7s3.64.36,4.32,2.93c.8,3,.4,8.27-1.21,8.7s-4.59-3.93-5.4-6.93"/>
        <path class="cls-6" d="M26.23,31.07c-1.88-1.88-1.8-3.78-.37-5.21s3.33-1.5,5.21.37c2.2,2.2,4.48,6.96,3.3,8.14s-5.94-1.1-8.14-3.3"/>
        <path class="cls-6" d="M96.36,53.27c2.65,0,3.95,1.4,3.95,3.42s-1.29,3.42-3.95,3.42c-3.11,0-8.09-1.75-8.09-3.42s4.98-3.42,8.09-3.42"/>
        <path class="cls-6" d="M89.33,33.9c2.3-1.33,4.12-.76,5.13.99s.59,3.61-1.71,4.93c-2.69,1.55-7.88,2.53-8.72,1.08s2.6-5.45,5.3-7.01"/>
        <path class="cls-6" d="M82.32,26.23c1.88-1.88,3.78-1.8,5.21-.37s1.5,3.33-.37,5.21c-2.2,2.2-6.96,4.48-8.14,3.3s1.1-5.94,3.3-8.14"/>
        <path class="cls-6" d="M73.56,20.63c1.33-2.3,3.18-2.72,4.94-1.71s2.32,2.83.99,5.13c-1.55,2.69-5.56,6.13-7.01,5.3s-.47-6.03,1.08-8.72"/>
        <path class="cls-6" d="M63.65,17.5c.69-2.56,2.37-3.45,4.33-2.93s2.97,2.13,2.28,4.7c-.8,3-3.79,7.36-5.4,6.93s-2.01-5.7-1.21-8.7"/>
        <path class="cls-6" d="M32.92,46.92c-2.3-1.33-2.72-3.18-1.71-4.94s2.83-2.32,5.13-.99c2.69,1.55,6.13,5.56,5.3,7.01s-6.03.47-8.72-1.08"/>
        <path class="cls-6" d="M82.17,53.27c2.65,0,3.95,1.4,3.95,3.42s-1.29,3.42-3.95,3.42c-3.11,0-8.09-1.75-8.09-3.42s4.98-3.42,8.09-3.42"/>
        <path class="cls-6" d="M66.47,32.92c1.33-2.3,3.18-2.72,4.94-1.71s2.32,2.83.99,5.13c-1.55,2.69-5.56,6.13-7.01,5.3s-.47-6.03,1.08-8.72"/>
      </g>
    </g>
  </g>
</svg>