<?xml version="1.0" encoding="UTF-8"?>
<svg id="Layer_2" data-name="Layer 2" xmlns="http://www.w3.org/2000/svg" viewBox="0 0 271.87 113.39">
  <defs>
    <style>
      .cls-1 {
        fill: #003d6b;
      }

      .cls-2 {
        fill: #77cdd7;
      }

      .cls-3 {
        fill: #d4d0c1;
      }

      .cls-4 {
        fill: #bdb8a2;
      }

      .cls-5 {
        fill: #8bced6;
      }

      .cls-6 {
        fill: #aedfe5;
      }

      .cls-7 {
        fill: #14b6c1;
      }
    </style>
  </defs>
  <g id="Artwork">
    <g>
      <g>
        <path class="cls-3" d="M205.13,3.96c-.31-2.37.78-3.69,2.59-3.92s3.2.75,3.52,3.12c.37,2.77-.61,7.43-2.1,7.62s-3.64-4.04-4-6.82"/>
        <path class="cls-3" d="M180.11,16.05c-1.45-1.89-1.16-3.58.28-4.69s3.15-.95,4.6.94c1.7,2.22,3.18,6.74,1.99,7.65s-5.17-1.68-6.88-3.9"/>
        <path class="cls-3" d="M170.79,26.51c-1.89-1.45-2.05-3.16-.94-4.6s2.8-1.73,4.69-.28c2.22,1.7,4.82,5.68,3.9,6.87s-5.43-.29-7.65-1.99"/>
        <path class="cls-3" d="M164.49,39.03c-2.21-.91-2.8-2.52-2.1-4.2s2.25-2.4,4.46-1.48c2.58,1.07,6.12,4.24,5.55,5.63s-5.32,1.13-7.91.06"/>
        <path class="cls-3" d="M161.64,52.75c-2.37-.31-3.36-1.71-3.12-3.52s1.56-2.9,3.92-2.59c2.77.37,7.01,2.52,6.82,4s-4.85,2.47-7.62,2.1"/>
        <path class="cls-3" d="M162.45,66.74c-2.37.31-3.69-.78-3.92-2.59s.75-3.2,3.12-3.52c2.77-.37,7.43.61,7.62,2.1s-4.04,3.64-6.82,4"/>
        <path class="cls-3" d="M166.84,80.05c-2.21.91-3.76.2-4.46-1.49s-.1-3.29,2.1-4.2c2.58-1.07,7.33-1.33,7.91.06s-2.96,4.56-5.55,5.63"/>
        <path class="cls-3" d="M185,101.09c-1.45,1.89-3.16,2.05-4.6.94s-1.73-2.8-.28-4.69c1.7-2.22,5.68-4.82,6.87-3.9s-.29,5.43-1.99,7.65"/>
      </g>
      <g>
        <path class="cls-6" d="M174.53,91.76c-1.89,1.45-3.58,1.16-4.69-.28s-.95-3.15.94-4.6c2.22-1.7,6.74-3.18,7.65-1.99s-1.68,5.17-3.9,6.88"/>
        <path class="cls-6" d="M197.51,107.39c-.91,2.21-2.52,2.8-4.2,2.1s-2.4-2.25-1.48-4.46c1.07-2.58,4.24-6.12,5.63-5.55s1.13,5.32.06,7.91"/>
        <path class="cls-6" d="M211.24,110.23c-.31,2.37-1.71,3.36-3.52,3.12s-2.9-1.56-2.59-3.92c.37-2.77,2.52-7.01,4-6.82s2.47,4.85,2.1,7.62"/>
        <path class="cls-6" d="M225.23,109.43c.31,2.37-.78,3.69-2.59,3.92s-3.2-.75-3.52-3.12c-.37-2.77.61-7.43,2.1-7.62s3.64,4.04,4,6.82"/>
        <path class="cls-6" d="M238.53,105.03c.91,2.21.2,3.76-1.49,4.46s-3.29.1-4.2-2.1c-1.07-2.58-1.33-7.33.06-7.91s4.56,2.96,5.63,5.55"/>
        <path class="cls-6" d="M250.25,97.34c1.45,1.89,1.16,3.58-.28,4.69s-3.15.95-4.6-.94c-1.7-2.22-3.18-6.74-1.99-7.65s5.17,1.68,6.88,3.9"/>
        <path class="cls-6" d="M259.57,86.88c1.89,1.45,2.05,3.16.94,4.6s-2.8,1.73-4.69.28c-2.22-1.7-4.82-5.68-3.9-6.87s5.43.29,7.65,1.99"/>
        <path class="cls-6" d="M268.72,60.64c2.37.31,3.36,1.71,3.12,3.52s-1.56,2.9-3.92,2.59c-2.77-.37-7.01-2.52-6.82-4s4.85-2.47,7.62-2.1"/>
      </g>
      <g>
        <path class="cls-5" d="M191.83,8.36c-.91-2.21-.2-3.76,1.49-4.46s3.29-.1,4.2,2.1c1.07,2.58,1.33,7.33-.06,7.91s-4.56-2.96-5.63-5.55"/>
        <path class="cls-5" d="M265.87,74.36c2.21.91,2.8,2.52,2.1,4.2s-2.25,2.4-4.46,1.48c-2.58-1.07-6.12-4.24-5.55-5.63s5.32-1.13,7.91-.06"/>
        <path class="cls-5" d="M267.92,46.65c2.37-.31,3.69.78,3.92,2.59s-.75,3.2-3.12,3.52c-2.77.37-7.43-.61-7.62-2.1s4.04-3.64,6.82-4"/>
        <path class="cls-5" d="M263.52,33.34c2.21-.91,3.76-.2,4.46,1.49s.1,3.29-2.1,4.2c-2.58,1.07-7.33,1.33-7.91-.06s2.96-4.56,5.55-5.63"/>
        <path class="cls-5" d="M255.83,21.62c1.89-1.45,3.58-1.16,4.69.28s.95,3.15-.94,4.6c-2.22,1.7-6.74,3.18-7.65,1.99s1.68-5.17,3.9-6.88"/>
        <path class="cls-5" d="M245.37,12.3c1.45-1.89,3.16-2.05,4.6-.94s1.73,2.8.28,4.69c-1.7,2.22-5.68,4.82-6.87,3.9s.29-5.43,1.99-7.65"/>
        <path class="cls-5" d="M232.85,6c.91-2.21,2.52-2.8,4.2-2.1s2.4,2.25,1.48,4.46c-1.07,2.58-4.24,6.12-5.63,5.55s-1.13-5.32-.06-7.91"/>
        <path class="cls-5" d="M219.12,3.15c.31-2.37,1.71-3.36,3.52-3.12s2.9,1.56,2.59,3.92c-.37,2.77-2.52,7.01-4,6.82s-2.47-4.85-2.1-7.62"/>
      </g>
      <g>
        <path class="cls-4" d="M192.39,24.05c-1.33-2.3-.76-4.12.99-5.13s3.61-.59,4.93,1.71c1.55,2.69,2.53,7.88,1.08,8.72s-5.45-2.6-7.01-5.3"/>
        <path class="cls-4" d="M179.12,39.82c-2.3-1.33-2.72-3.18-1.71-4.94s2.83-2.32,5.13-.99c2.69,1.55,6.13,5.56,5.3,7.01s-6.03.47-8.72-1.08"/>
        <path class="cls-4" d="M175.98,49.73c-2.56-.69-3.45-2.37-2.93-4.33s2.13-2.97,4.7-2.28c3,.8,7.36,3.79,6.93,5.4s-5.7,2.01-8.7,1.21"/>
        <path class="cls-4" d="M175.52,60.11c-2.65,0-3.95-1.4-3.95-3.42s1.29-3.42,3.95-3.42c3.11,0,8.09,1.75,8.09,3.42s-4.98,3.42-8.09,3.42"/>
        <path class="cls-4" d="M177.75,70.26c-2.56.69-4.17-.33-4.7-2.28s.36-3.64,2.93-4.32c3-.8,8.27-.4,8.7,1.21s-3.93,4.59-6.93,5.4"/>
        <path class="cls-4" d="M182.54,79.49c-2.3,1.33-4.12.76-5.13-.99s-.59-3.61,1.71-4.93c2.69-1.55,7.88-2.53,8.72-1.08s-2.6,5.45-5.3,7.01"/>
        <path class="cls-4" d="M189.55,87.16c-1.88,1.88-3.78,1.8-5.21.37s-1.5-3.33.37-5.21c2.2-2.2,6.96-4.48,8.14-3.3s-1.1,5.94-3.3,8.14"/>
        <path class="cls-4" d="M208.22,95.89c-.69,2.56-2.37,3.45-4.33,2.93s-2.97-2.13-2.28-4.7c.8-3,3.79-7.36,5.4-6.93s2.01,5.7,1.21,8.7"/>
        <path class="cls-4" d="M199.48,36.34c-1.33-2.3-.76-4.12.99-5.13s3.61-.59,4.93,1.71c1.55,2.69,2.53,7.88,1.08,8.72s-5.45-2.6-7.01-5.3"/>
        <path class="cls-4" d="M189.7,60.11c-2.65,0-3.95-1.4-3.95-3.42s1.29-3.42,3.95-3.42c3.11,0,8.09,1.75,8.09,3.42s-4.98,3.42-8.09,3.42"/>
        <path class="cls-4" d="M194.83,72.39c-2.3,1.33-4.12.76-5.13-.99s-.59-3.61,1.71-4.93c2.69-1.55,7.88-2.53,8.72-1.08s-2.6,5.45-5.3,7.01"/>
        <path class="cls-4" d="M218.6,82.17c0,2.65-1.4,3.95-3.42,3.95s-3.42-1.29-3.42-3.95c0-3.11,1.75-8.09,3.42-8.09s3.42,4.98,3.42,8.09"/>
      </g>
      <g>
        <path class="cls-2" d="M198.31,92.75c-1.33,2.3-3.18,2.72-4.94,1.71s-2.32-2.83-.99-5.13c1.55-2.69,5.56-6.13,7.01-5.3s.47,6.03-1.08,8.72"/>
        <path class="cls-2" d="M218.6,96.36c0,2.65-1.4,3.95-3.42,3.95s-3.42-1.29-3.42-3.95c0-3.11,1.75-8.09,3.42-8.09s3.42,4.98,3.42,8.09"/>
        <path class="cls-2" d="M228.75,94.12c.69,2.56-.33,4.17-2.28,4.7s-3.64-.36-4.32-2.93c-.8-3-.4-8.27,1.21-8.7s4.59,3.93,5.4,6.93"/>
        <path class="cls-2" d="M237.97,89.33c1.33,2.3.76,4.12-.99,5.13s-3.61.59-4.93-1.71c-1.55-2.69-2.53-7.88-1.08-8.72s5.45,2.6,7.01,5.3"/>
        <path class="cls-2" d="M245.65,82.32c1.88,1.88,1.8,3.78.37,5.21s-3.33,1.5-5.21-.37c-2.2-2.2-4.48-6.96-3.3-8.14s5.94,1.1,8.14,3.3"/>
        <path class="cls-2" d="M251.24,73.56c2.3,1.33,2.72,3.18,1.71,4.94s-2.83,2.32-5.13.99c-2.69-1.55-6.13-5.56-5.3-7.01s6.03-.47,8.72,1.08"/>
        <path class="cls-2" d="M254.38,63.65c2.56.69,3.45,2.37,2.93,4.33s-2.13,2.97-4.7,2.28c-3-.8-7.36-3.79-6.93-5.4s5.7-2.01,8.7-1.21"/>
        <path class="cls-2" d="M252.61,43.12c2.56-.69,4.17.33,4.7,2.28s-.36,3.64-2.93,4.32c-3,.8-8.27.4-8.7-1.21s3.93-4.59,6.93-5.4"/>
        <path class="cls-2" d="M205.4,80.47c-1.33,2.3-3.18,2.72-4.94,1.71s-2.32-2.83-.99-5.13c1.55-2.69,5.56-6.13,7.01-5.3s.47,6.03-1.08,8.72"/>
        <path class="cls-2" d="M230.88,77.05c1.33,2.3.76,4.12-.99,5.13s-3.61.59-4.93-1.71c-1.55-2.69-2.53-7.88-1.08-8.72s5.45,2.6,7.01,5.3"/>
        <path class="cls-2" d="M238.95,66.47c2.3,1.33,2.72,3.18,1.71,4.94s-2.83,2.32-5.13.99c-2.69-1.55-6.13-5.56-5.3-7.01s6.03-.47,8.72,1.08"/>
        <path class="cls-2" d="M235.53,40.99c2.3-1.33,4.12-.76,5.13.99s.59,3.61-1.71,4.93c-2.69,1.55-7.88,2.53-8.72,1.08s2.6-5.45,5.3-7.01"/>
      </g>
      <g>
        <path class="cls-7" d="M211.76,31.22c0-2.65,1.4-3.95,3.42-3.95s3.42,1.29,3.42,3.95c0,3.11-1.75,8.09-3.42,8.09s-3.42-4.98-3.42-8.09"/>
        <path class="cls-7" d="M211.76,17.03c0-2.65,1.4-3.95,3.42-3.95s3.42,1.29,3.42,3.95c0,3.11-1.75,8.09-3.42,8.09s-3.42-4.98-3.42-8.09"/>
        <path class="cls-7" d="M201.61,19.27c-.69-2.56.33-4.17,2.28-4.7s3.64.36,4.32,2.93c.8,3,.4,8.27-1.21,8.7s-4.59-3.93-5.4-6.93"/>
        <path class="cls-7" d="M184.72,31.07c-1.88-1.88-1.8-3.78-.37-5.21s3.33-1.5,5.21.37c2.2,2.2,4.48,6.96,3.3,8.14s-5.94-1.1-8.14-3.3"/>
        <path class="cls-7" d="M254.84,53.27c2.65,0,3.95,1.4,3.95,3.42s-1.29,3.42-3.95,3.42c-3.11,0-8.09-1.75-8.09-3.42s4.98-3.42,8.09-3.42"/>
        <path class="cls-7" d="M247.82,33.9c2.3-1.33,4.12-.76,5.13.99s.59,3.61-1.71,4.93c-2.69,1.55-7.88,2.53-8.72,1.08s2.6-5.45,5.3-7.01"/>
        <path class="cls-7" d="M240.81,26.23c1.88-1.88,3.78-1.8,5.21-.37s1.5,3.33-.37,5.21c-2.2,2.2-6.96,4.48-8.14,3.3s1.1-5.94,3.3-8.14"/>
        <path class="cls-7" d="M232.05,20.63c1.33-2.3,3.18-2.72,4.94-1.71s2.32,2.83.99,5.13c-1.55,2.69-5.56,6.13-7.01,5.3s-.47-6.03,1.08-8.72"/>
        <path class="cls-7" d="M222.14,17.5c.69-2.56,2.37-3.45,4.33-2.93s2.97,2.13,2.28,4.7c-.8,3-3.79,7.36-5.4,6.93s-2.01-5.7-1.21-8.7"/>
        <path class="cls-7" d="M191.41,46.92c-2.3-1.33-2.72-3.18-1.71-4.94s2.83-2.32,5.13-.99c2.69,1.55,6.13,5.56,5.3,7.01s-6.03.47-8.72-1.08"/>
        <path class="cls-7" d="M240.66,53.27c2.65,0,3.95,1.4,3.95,3.42s-1.29,3.42-3.95,3.42c-3.11,0-8.09-1.75-8.09-3.42s4.98-3.42,8.09-3.42"/>
        <path class="cls-7" d="M224.96,32.92c1.33-2.3,3.18-2.72,4.94-1.71s2.32,2.83.99,5.13c-1.55,2.69-5.56,6.13-7.01,5.3s-.47-6.03,1.08-8.72"/>
      </g>
      <path class="cls-1" d="M4.78,63.55L.33,76.74h2.14l1.09-3.38h5.13l1.09,3.38h2.34l-4.37-13.19h-2.97ZM4.11,71.69l2.01-6.25,2.02,6.25h-4.03ZM18.9,66.89c-1.84,0-2.86,1.26-3.15,1.76v-6.02h-2.23v14.12h2.23v-1.55c.27.52,1.14,1.73,3.15,1.73,2.4,0,4.27-1.74,4.27-4.97v-.15c0-3.22-1.92-4.91-4.27-4.91ZM20.9,72c0,2.38-1.22,3.15-2.55,3.15-1.4,0-2.68-.81-2.68-3.17v-.15c0-2.65,1.62-3.19,2.66-3.19,1.1,0,2.57.67,2.57,3.21v.15ZM77.94,66.89c-1.84,0-2.86,1.26-3.15,1.76v-6.02h-2.23v14.12h2.23v-1.55c.27.52,1.14,1.73,3.15,1.73,2.4,0,4.27-1.74,4.27-4.97v-.15c0-3.22-1.92-4.91-4.27-4.91ZM79.94,72c0,2.38-1.22,3.15-2.55,3.15-1.4,0-2.68-.81-2.68-3.17v-.15c0-2.65,1.62-3.19,2.66-3.19,1.1,0,2.57.67,2.57,3.21v.15ZM119,66.89c-1.84,0-2.86,1.26-3.15,1.76v-6.02h-2.23v14.12h2.23v-1.55c.27.52,1.14,1.73,3.15,1.73,2.4,0,4.27-1.74,4.27-4.97v-.15c0-3.22-1.92-4.91-4.27-4.91ZM121,72c0,2.38-1.22,3.15-2.55,3.15-1.4,0-2.68-.81-2.68-3.17v-.15c0-2.65,1.62-3.19,2.66-3.19,1.1,0,2.57.67,2.57,3.21v.15ZM31.03,67.09h2.23v9.65h-2.23v-1.51c-.26.5-1.04,1.69-3.06,1.69-1.49,0-3.32-.71-3.32-3.65v-6.18h2.23v5.92c0,1.75.91,2.13,1.88,2.13,1.11,0,2.27-.66,2.27-2.31v-5.74ZM109.21,67.09h2.23v9.65h-2.23v-1.51c-.26.5-1.04,1.69-3.06,1.69-1.49,0-3.32-.71-3.32-3.65v-6.18h2.23v5.92c0,1.75.91,2.13,1.88,2.13,1.11,0,2.27-.66,2.27-2.31v-5.74ZM43.5,63.55h-3.93v13.19h3.89c4.1,0,6.83-2.23,6.83-6.57v-.17c0-3.92-2.38-6.45-6.79-6.45ZM47.91,70.18c0,3.01-1.51,4.74-4.52,4.74h-1.53v-9.56h1.51c3.77,0,4.54,2.48,4.54,4.68v.14ZM60.68,70.69v6.06h-2.23v-5.87c0-1.67-.8-2.13-1.92-2.13-1.02,0-2.27.59-2.27,2.31v5.69h-2.23v-14.12h2.23v6c.25-.5,1.11-1.74,3.12-1.74,1.67,0,3.31.85,3.31,3.8ZM80.73,91.13v6.06h-2.23v-5.87c0-1.67-.8-2.13-1.92-2.13-1.02,0-2.27.59-2.27,2.31v5.69h-2.23v-14.12h2.23v6c.25-.5,1.11-1.74,3.12-1.74,1.67,0,3.31.85,3.31,3.8ZM66.6,66.89c-3.28,0-4.06,1.99-4.13,3.2h2.15c.11-1.01.73-1.51,1.85-1.51,1.42,0,1.76.78,1.76,1.94v.5h-1.21c-.71,0-4.94-.05-4.94,3.06,0,2.57,2.28,2.86,3.23,2.86,1.65,0,2.41-.66,2.96-1.36v1.18h2.19v-6.33c0-2.61-1.66-3.53-3.86-3.53ZM68.23,73.37c0,.61-.22,1.08-.67,1.43-.45.35-1.02.52-1.72.52-1.03,0-1.55-.45-1.55-1.34,0-.56.24-.97.72-1.21.48-.24,1.17-.36,2.07-.36h1.14v.95ZM55.26,87.33c-3.28,0-4.06,1.99-4.13,3.2h2.15c.11-1.01.73-1.51,1.85-1.51,1.42,0,1.76.78,1.76,1.94v.5h-1.21c-.71,0-4.94-.05-4.94,3.06,0,2.57,2.28,2.86,3.23,2.86,1.65,0,2.41-.66,2.96-1.36v1.18h2.19v-6.33c0-2.61-1.66-3.53-3.86-3.53ZM56.89,93.81c0,.61-.22,1.08-.67,1.43-.45.35-1.02.52-1.72.52-1.03,0-1.55-.45-1.55-1.34,0-.56.24-.97.72-1.21.48-.24,1.17-.36,2.07-.36h1.14v.95ZM83.83,67.09h2.23v9.65h-2.23v-9.65ZM96.6,63.55h-4.15v13.19h2.29v-5.07h1.92c2.97,0,4.78-1.4,4.78-4.03v-.07c0-2.91-2.16-4.02-4.83-4.02ZM99.2,67.66c0,1.34-.73,2.32-2.59,2.32h-1.88v-4.67h1.88c1.72,0,2.59.76,2.59,2.27v.07ZM124.9,62.62h2.23v14.12h-2.23v-14.12ZM129.43,67.09h2.23v9.65h-2.23v-9.65ZM140.56,73.15h2.03c-.18,2.61-2.21,3.78-4.45,3.78-3.26,0-4.87-2.3-4.87-4.9v-.15c0-2.71,1.83-4.98,4.87-4.98,1.35,0,4.11.44,4.4,3.62h-2.13c-.21-1.22-.95-1.83-2.23-1.83-1.34,0-2.62.92-2.62,3.19v.15c0,2.12,1.09,3.19,2.68,3.19,1.34,0,2.22-.87,2.32-2.06ZM36.47,84h2.31v13.19h-2.31v-5.67h-6.13v5.67h-2.29v-13.19h2.29v5.68h6.13v-5.68ZM45.26,87.33c-2.61,0-4.79,1.82-4.79,4.98v.15c0,3.21,2.22,4.9,4.88,4.9,2.48,0,4.13-1.12,4.43-3.14h-2.16c-.17.99-.91,1.48-2.21,1.48-2.29,0-2.62-1.94-2.66-2.86h7.06v-.65c0-4.3-3.2-4.88-4.56-4.88ZM42.8,91.36c.11-.75.58-2.4,2.47-2.4,1.46,0,2.24.8,2.34,2.4h-4.81ZM104.1,87.33c-2.61,0-4.79,1.82-4.79,4.98v.15c0,3.21,2.22,4.9,4.88,4.9,2.48,0,4.13-1.12,4.43-3.14h-2.16c-.17.99-.91,1.48-2.21,1.48-2.29,0-2.62-1.94-2.66-2.86h7.06v-.65c0-4.3-3.2-4.88-4.56-4.88ZM101.63,91.36c.11-.75.58-2.4,2.47-2.4,1.46,0,2.24.8,2.34,2.4h-4.81ZM138.03,87.33c-2.61,0-4.79,1.82-4.79,4.98v.15c0,3.21,2.22,4.9,4.88,4.9,2.48,0,4.13-1.12,4.43-3.14h-2.16c-.17.99-.91,1.48-2.21,1.48-2.29,0-2.62-1.94-2.66-2.86h7.06v-.65c0-4.3-3.2-4.88-4.56-4.88ZM135.56,91.36c.11-.75.58-2.4,2.47-2.4,1.46,0,2.24.8,2.34,2.4h-4.81ZM61.27,83.07h2.23v14.12h-2.23v-14.12ZM69.46,95.55c.38,0,.74-.07,1.09-.21v1.77c-.5.16-1.01.23-1.51.23-2.66,0-2.92-1.94-2.92-2.86v-5.3h-1.29v-1.66h1.29v-2.13h2.23v2.13h2.11v1.66h-2.11v5.09c0,.84.37,1.26,1.11,1.26ZM96.21,92.63h2.22c-.38,3.1-2.59,4.74-5.72,4.74-4.3,0-6.39-2.85-6.39-6.7v-.14c0-3.92,2.62-6.74,6.37-6.74,3.11,0,5.31,1.61,5.59,4.56h-2.31c-.29-1.83-1.38-2.75-3.28-2.75-2,0-3.99,1.41-3.99,4.91v.14c0,2.72,1.21,4.87,4.01,4.87,1.95,0,3.27-1.04,3.5-2.9ZM118.84,91.13v6.06h-2.23v-5.87c0-1.57-.71-2.13-1.92-2.13-1.08,0-2.27.63-2.27,2.31v5.69h-2.23v-9.65h2.23v1.53c.25-.5,1.1-1.74,3.12-1.74,1.45,0,3.31.66,3.31,3.8ZM124.65,95.55c.38,0,.74-.07,1.09-.21v1.77c-.5.16-1.01.23-1.51.23-2.65,0-2.92-1.94-2.92-2.86v-5.3h-1.29v-1.66h1.29v-2.13h2.23v2.13h2.11v1.66h-2.11v5.09c0,.84.37,1.26,1.11,1.26ZM130.72,87.89c.5-.33,1.13-.49,1.92-.5v2.08c-1.05.02-1.83.23-2.35.63-.52.4-.78,1.09-.78,2.06v5.02h-2.23v-9.65h2.23v1.81c.32-.64.72-1.13,1.22-1.46ZM91.78,22.75c.2,1.33.3,2.43.3,3.28,0,1.61-.53,2.18-1.98,2.18h-11.45c-.07-3.28-1.48-5.64-3.82-5.64-2,0-3.82,1.8-3.82,4.33,0,2.28,1.54,3.46,4.34,3.46h1.66c-.15.84-.47,1.43-.96,1.79-.5.35-1.23.53-2.2.53-.89,0-1.75-.12-2.6-.35v2.12c.85.19,1.72.29,2.6.29,2.79,0,4.36-1.46,4.72-4.37h11.61c2.52,0,3.78-1.38,3.78-4.15,0-.94-.09-2.09-.26-3.46h-1.93ZM75.22,28.22c-1.91,0-2.6-.47-2.6-1.52,0-.93.6-2.05,1.91-2.05,1.39,0,2.42,1.1,2.59,3.57h-1.89ZM99.28,17.74l-3.96.58v-1.32l.81-.11c-.35-.3-.52-.68-.52-1.15,0-.85.65-1.72,1.78-1.72,1.05,0,1.55.77,1.59,1.59l-.9.11c-.16-.27-.41-.41-.74-.41-.5,0-.71.26-.71.57,0,.26.13.46.39.61.26.15.57.2.94.14l1.32-.2v1.29ZM96.39,30.37v-11.24h1.94v11.24h-1.94ZM107.14,29.46c-.19,3.54-1.66,5.27-3.96,5.27-.59,0-1.14-.04-1.65-.13v-2.15c.69.09,1.18.14,1.47.14,1.98,0,2.74-1.78,2.74-3.92,0-1.46-.17-3-.5-4.61h1.91l.33,2.2c.09.7.3,1.2.63,1.51.33.3.8.46,1.42.46h12.59c.49,0,.85-.09,1.09-.28.24-.18.36-.42.36-.7,0-.31-.12-.61-.36-.9-.24-.29-.69-.7-1.35-1.25l-3.5-2.6v-1.84l8.06-4.56-.02,2.22-5.95,3.29,2.19,1.78c.95.71,1.63,1.36,2.04,1.95.41.59.61,1.23.61,1.92,0,.95-.39,3.11-3.64,3.11h-12.58c-.89,0-1.53-.3-1.93-.9ZM130.31,29.46c.39.6,1.03.9,1.93.9,1.93,0,2.6-.8,2.96-1.26.9.96,2.13,1.44,3.67,1.44,2.6,0,3.73-1.6,3.73-3.73,0-2.49-1.56-4.24-3.6-4.24-3.4,0-3.6,3.95-4.97,5.25-.29.27-.73.39-1.32.39-1.46,0-1.88-.85-2.05-1.96l-.33-2.2h-1.91c.33,1.62.5,3.15.5,4.61,0,2.31-.86,3.92-2.74,3.92-.29,0-.78-.05-1.47-.14v2.15c.51.08,1.06.13,1.65.13,3.36,0,3.87-3.56,3.96-5.27ZM136.16,27.35l.3-.67c.7-1.63,1.51-1.98,2.53-1.98,1.26,0,2.01.96,2.01,2.04,0,1.41-.99,1.66-2.03,1.66-1.5,0-2.46-.71-2.81-1.04v-.02ZM61.59,30.37c2.63,0,4.58-.35,5.84-1.04,1.27-.7,1.9-1.76,1.9-3.18,0-2.17-1.52-3.83-3.91-3.83-1.66,0-3.19.7-4.59,2.1v-8.21h-1.94v10.83c-.22.4-.42.8-.6,1.18h-1.12c-.49,0-.87-.06-1.12-.17-.26-.11-.45-.33-.57-.63-.12-.31-.18-.77-.18-1.37v-1.98h-1.89v1.98c0,.79-.14,1.35-.43,1.68-.28.33-.77.5-1.47.5h-15.19v2.04h.43c.61,0,1.08.09,1.4.26.32.17.47.41.47.72,0,.41-.39.74-1.16.99-.77.25-1.98.37-3.62.37-2.92,0-4.39-1.03-4.39-3.09,0-.57.1-1.31.3-2.22h-1.85c-.21.9-.32,1.78-.32,2.65,0,1.63.38,4.86,6.15,4.86,4.74,0,6.61-1.69,6.61-3.18,0-.49-.17-.91-.5-1.24h11.21s0,0,0,0c1.6,0,2.52-.65,2.76-1.96.26,1.31,1.24,1.96,2.93,1.96h4.84ZM62.33,25.47c.94-.66,1.94-.99,2.99-.99.75,0,1.33.17,1.75.52.42.35.63.74.63,1.18,0,.72-.44,1.24-1.32,1.56-.88.32-2.33.48-4.33.48h-2.21c.72-1.17,1.55-2.08,2.49-2.74ZM19.09,50.07c0-2.32-1.42-4.24-3.6-4.24-3.38,0-3.58,3.91-4.97,5.25-.28.27-.82.39-1.32.39-1.07,0-1.53-.45-1.53-1.81v-6.22h-1.96v1.59l-2.84,1.33c-1.91.87-2.87,2.1-2.87,3.69,0,1.73.92,3.15,3.16,3.15,1.4,0,2.31-.58,2.74-1.73.29,1.54,1.13,2.15,2.84,2.15,1.37,0,2.23-.34,2.95-1.26.9.96,2.13,1.44,3.67,1.44,2.36,0,3.73-1.33,3.73-3.73ZM5.71,49.15c0,.71-.18,1.89-2.37,1.89-1.35,0-1.71-.63-1.71-1.24,0-1.11,1.18-1.71,1.82-2.02l2.26-1.06v2.42ZM12.66,50.62v-.02l.3-.67c.65-1.47,1.33-1.98,2.53-1.98,1.07,0,2.01.78,2.01,2.04s-.72,1.66-2.03,1.66c-1.53,0-2.46-.71-2.81-1.04ZM61.58,49.29v-9.84h-1.96v9.56c0,.99-.13,1.65-.38,1.97-.25.33-.76.49-1.51.49h-1.54c-.28,0-.67-.01-1.17-.04,1.12-.92,1.66-1.91,1.65-2.99-.02-.97-.36-1.67-1.03-2.09-.67-.42-1.74-.63-3.21-.63s-2.94.21-4.55.64v2.06s1.35,2.06,2.37,3.01c-.47.02-.84.04-1.09.04h-24.29c-.71,0-1.2-.15-1.48-.45-.27-.3-.41-.83-.41-1.61v-9.97h-1.96v10.25c0,1.36.25,2.35.76,2.98.51.63,1.33.94,2.46.94h23.89c1.52,0,2.94-.24,4.26-.71,1.12.47,2.6.71,4.45.71h1.2c1.21,0,2.11-.35,2.69-1.05.58-.7.87-1.8.87-3.28ZM52.69,51.01c-.6-.22-1.13-.57-1.6-1.01-.82-.76-1.56-1.95-1.56-1.95.96-.19,1.93-.28,2.9-.28.92,0,1.59.09,2.01.26.42.17.64.46.64.85.02.42-.18.82-.6,1.2-.42.38-1.01.69-1.79.92ZM66.09,53.62h-1.94v-14.17h1.94v14.17ZM142.29,39.45h-1.96v9.56c0,.99-.13,1.65-.38,1.97-.25.33-.75.49-1.51.49-1.08,0-1.34-.25-1.49-.41-.15-.17-.39-.46-.39-1.77v-9.84h-1.94v9.84c0,.79-.14,1.35-.42,1.68-.28.33-.76.5-1.45.5-.87,0-1.51-.15-1.91-.46.22-.47.33-1.01.33-1.61,0-1.95-1.36-3.83-3.92-3.83-1.41,0-2.72.49-3.92,1.48-1.2.99-2.22,2.35-3.05,4.08-.57-.31-.85-.88-.85-1.71v-.81h-1.78v.81c0,.75-.14,1.28-.43,1.59-.29.31-.78.46-1.47.47-.66,0-1.14-.11-1.44-.32-.3-.21-.45-.56-.45-1.04v-.26c.22-.06.48-.09.8-.09h.69v-1.94h-.62c-.52,0-1.01-.06-1.46-.17-1.51-.38-4.86-2.07-6.47-2.07-.82,0-1.47.27-1.95.8-.48.54-.74,1.28-.77,2.23h1.73c.05-.28.16-.49.33-.64.17-.15.39-.23.65-.23,1.3,0,3.03,1.12,4.95,1.56-.4.16-.82.35-1.26.57l-1.26.61c-.74.37-1.43.63-2.08.78-.64.14-1.42.22-2.33.22h-24.11c-.55,0-.95-.14-1.18-.41-.24-.27-.35-.74-.35-1.4v-6.22h-1.96v1.59l-2.84,1.33c-1.91.87-2.87,2.1-2.87,3.69,0,.98.28,1.75.84,2.31.56.56,1.33.84,2.33.84,1.4,0,2.31-.58,2.74-1.73.14.76.43,1.31.87,1.65.44.34,1.09.5,1.96.51h24.58c1.04,0,1.9-.1,2.58-.32.68-.21,1.52-.64,2.53-1.28l1.25-.81c.64-.4,1.01-.62,1.09-.67.09,2.05,1.1,3.07,3.03,3.07,1.64,0,2.57-.73,2.79-2.19.42,1.58,2.19,2.37,5.34,2.37,2.9,0,4.99-.47,6.26-1.4.6.81,1.47,1.22,2.61,1.22,1.56,0,2.47-.66,2.74-1.98.26,1.32,1.24,1.98,2.96,1.98h0s.76,0,.76,0c1.21,0,2.11-.35,2.69-1.05.58-.7.87-1.8.87-3.28v-9.84ZM77.19,49.15c0,.66-.2,1.14-.59,1.44-.39.3-.99.45-1.78.45-.56,0-.99-.11-1.28-.33-.29-.22-.43-.52-.43-.91s.14-.77.43-1.09c.29-.32.75-.63,1.38-.93l2.26-1.06v2.42ZM128.16,51.1c-.9.37-2.34.56-4.3.56-.94,0-1.69-.04-2.24-.13.73-1.19,1.57-2.12,2.52-2.79.95-.67,1.96-1.01,3.02-1.01,1.67,0,2.35.95,2.35,1.7s-.45,1.29-1.36,1.66ZM106.99,21.77c0,.62-.5,1.12-1.12,1.12s-1.12-.5-1.12-1.12.5-1.12,1.12-1.12,1.12.5,1.12,1.12ZM85.75,32.8c0,.62-.5,1.12-1.12,1.12s-1.12-.5-1.12-1.12.5-1.12,1.12-1.12,1.12.5,1.12,1.12ZM86.28,64.17c0,.74-.6,1.34-1.34,1.34s-1.34-.6-1.34-1.34.6-1.34,1.34-1.34,1.34.6,1.34,1.34ZM131.89,64.17c0,.74-.6,1.34-1.34,1.34s-1.34-.6-1.34-1.34.6-1.34,1.34-1.34,1.34.6,1.34,1.34ZM66.05,20.02c0,.62-.5,1.12-1.12,1.12s-1.12-.5-1.12-1.12.5-1.12,1.12-1.12,1.12.5,1.12,1.12ZM55.14,32.8c0,.62-.5,1.12-1.12,1.12s-1.12-.5-1.12-1.12.5-1.12,1.12-1.12,1.12.5,1.12,1.12ZM36.11,37.18c0,.62-.5,1.12-1.12,1.12s-1.12-.5-1.12-1.12.5-1.12,1.12-1.12,1.12.5,1.12,1.12ZM33.35,37.18c0,.62-.5,1.12-1.12,1.12s-1.12-.5-1.12-1.12.5-1.12,1.12-1.12,1.12.5,1.12,1.12ZM7.24,41.15c0,.62-.5,1.12-1.12,1.12s-1.12-.5-1.12-1.12.5-1.12,1.12-1.12,1.12.5,1.12,1.12ZM4.48,41.15c0,.62-.5,1.12-1.12,1.12s-1.12-.5-1.12-1.12.5-1.12,1.12-1.12,1.12.5,1.12,1.12ZM78.72,41.15c0,.62-.5,1.12-1.12,1.12s-1.12-.5-1.12-1.12.5-1.12,1.12-1.12,1.12.5,1.12,1.12ZM75.97,41.15c0,.62-.5,1.12-1.12,1.12s-1.12-.5-1.12-1.12.5-1.12,1.12-1.12,1.12.5,1.12,1.12Z"/>
    </g>
  </g>
</svg>